<svg viewBox="0 0 64 64">
  <path fill="currentColor" d="M56 4H8a4 4 0 0 0-4 4v48a4 4 0 0 0 4 4h48a4 4 0 0 0 4-4V8a4 4 0 0 0-4-4ZM29 52.176a.964.964 0 0 1-1.059.824H12.059A.964.964 0 0 1 11 52.176V39.824A.964.964 0 0 1 12.059 39h15.882a.964.964 0 0 1 1.059.824Zm0-20.47A1.194 1.194 0 0 1 27.941 33H12.059A1.194 1.194 0 0 1 11 31.706V12.294A1.194 1.194 0 0 1 12.059 11h15.882A1.194 1.194 0 0 1 29 12.294ZM53 51.95A1.054 1.054 0 0 1 51.941 53H36.059A1.054 1.054 0 0 1 35 51.95v-39.9A1.054 1.054 0 0 1 36.059 11h15.882A1.054 1.054 0 0 1 53 12.05Z" />
</svg>