<svg viewBox="0 0 64 64">
  <path fill="currentColor" d="M14.8 26.8h-4.1c-.7 0-1.2.5-1.2 1.2s.5 1.2 1.2 1.2h4.1c.7 0 1.2-.5 1.2-1.2s-.6-1.2-1.2-1.2zm23.2 13c0-.7-.5-1.3-1.2-1.3s-1.2.6-1.2 1.2c0 .7.5 1.2 1.2 1.2.6.1 1.2-.5 1.2-1.1z"/>
  <path fill="currentColor" d="M57.9 4.9H16c-2.9 0-5.2 2.3-5.2 5.2v9.4h2.5V10c0-1.5 1.2-2.7 2.7-2.7h42c1.5 0 2.7 1.2 2.7 2.7v23.7H27v2.5h33.6v3.7c0 1.5-1.2 2.7-2.7 2.7H27v2.5h8.7v4.3h-6.4c-.7 0-1.3.6-1.3 1.3s.6 1.3 1.3 1.3h15.3c.7 0 1.3-.6 1.3-1.3s-.6-1.3-1.3-1.3h-6.4v-4.3h19.7c2.9 0 5.2-2.3 5.2-5.2V10c0-2.8-2.3-5.1-5.2-5.1zM12.7 52.5c-.7 0-1.4.6-1.4 1.4 0 .7.6 1.4 1.4 1.4.7 0 1.4-.6 1.4-1.4 0-.8-.6-1.4-1.4-1.4z"/>
  <path fill="currentColor" d="M23.4 23.1c-.8-.8-1.8-1.2-3-1.2H4.9c-2.4 0-4 1.7-4 4V55c0 1.2.4 2.2 1.2 2.9.7.7 1.8 1.2 2.9 1.2h15.4c1.1 0 2.2-.4 2.9-1.2.7-.7 1.2-1.8 1.2-2.9V26c.1-1.1-.3-2.1-1.1-2.9zm-1.7 33.2c-.3.3-.8.5-1.3.5H4.9c-.5 0-1-.2-1.3-.5-.3-.3-.5-.7-.5-1.2v-4.7H22v4.8c.2.4 0 .8-.3 1.1zm.5-29v20.5h-19V26c0-1.1.6-1.7 1.7-1.7H20.5c.5 0 .9.2 1.2.5.2.2.5.6.4 1.1.1.3.1 1.2.1 1.4z"/>
</svg>