<svg viewBox="0 0 146.756 200.5">
  <path d="M5.257 149.354c3.065 7.439 7.949 12.058 13.111 14.415l-2.793-11.085c-1.387-5.507 1.965-11.116 7.471-12.505a10.286 10.286 0 0 1 12.505 7.471l3.054 12.121c3.244-5.093 3.884-12.754 1.548-19.353-3.294-12.75 1.878-28.342 3.696-44.274 9.407-8.497 19.293-15.684 25.906-20.196l36.346 33.421a12.458 12.458 0 0 0 8.458 3.299 12.47 12.47 0 0 0 9.205-4.039c4.673-5.082 4.341-12.989-.74-17.662l-43.5-40a12.5 12.5 0 0 0-14.94-1.489c-.705.427-10.458 6.379-22.465 15.615l1.978-6.628 44.975-36.229c5.376-4.331 6.224-12.2 1.893-17.576-4.331-5.375-12.199-6.224-17.576-1.893l-48 38.667a12.496 12.496 0 0 0-4.136 6.16l-19 63.667a12.514 12.514 0 0 0-.438 2.204c-2.882 10.616-2.744 22.911 3.442 35.889z" fill="currentColor"/>
  <path d="M65.181 127.678c-12.134 2.686-19.791 14.696-17.104 26.831 2.685 12.131 14.695 19.791 26.829 17.105 12.132-2.686 19.791-14.698 17.105-26.83-2.685-12.135-14.699-19.792-26.83-17.106zm-1.578 33.63s14.093.7 21.908-5.93c0 0-6.286 19.564-21.908 5.93zm31.664 38.693h29.445l22.044-40.3-4.387-2.399-20.622 37.7H98.21a10.3 10.3 0 0 1-2.943 4.999z" fill="currentColor"/>
  <path d="M23.608 142.409a8.002 8.002 0 0 0-5.803 9.713l10.667 42.333a8.001 8.001 0 0 0 7.758 6.045h52a8 8 0 0 0 0-16H42.464l-9.144-36.288a7.998 7.998 0 0 0-9.712-5.803z" fill="currentColor"/>
</svg>