<svg viewBox="0 0 512 512">
  <circle cx="77.3" cy="60.5" r="7.5"/>
  <path d="M504.5 372.8c-4.3 0-8.1.3-11.7.8 6-12 9.2-25.4 9.2-39 0-48.2-39.3-87.5-87.5-87.5H189.3l37.4-37.4c23.2-23.2 36-54 36-86.8s-12.8-63.7-36-86.8c-47.9-48-125.8-48-173.7-.1-13.3 13.3-16.6 32.8-9.9 49.2l-11.7 55.4c-1.6 7.7 1.9 15.3 8.9 19 2.6 1.4 5.5 2.1 8.3 2.1 4.6 0 9-1.8 12.4-5.3l27.7-28.2L117 100c12.6-12.6 33.1-12.6 45.7 0 6.1 6.1 9.5 14.2 9.5 22.8 0 8.6-3.4 16.7-9.5 22.8l-127 127-.6.6C19.6 289.1 10 310.7 10 334.5c0 13.6 3.2 27 9.2 39-3.6-.5-7.4-.8-11.7-.8-4.1 0-7.5 3.4-7.5 7.5v124.2c0 4.1 3.4 7.5 7.5 7.5h497c4.1 0 7.5-3.4 7.5-7.5V380.2c0-4.1-3.4-7.4-7.5-7.4zM50.3 145.9c-1.1 1.1-2.2.9-3 .4-.8-.4-1.6-1.2-1.3-2.7l8.8-41.8c7.7 6.9 17.4 10.8 27.7 11.4l-4.5 4.5-27.7 28.2zm123 10.4c8.9-8.9 13.9-20.8 13.9-33.4 0-12.6-4.9-24.5-13.9-33.4-18.4-18.4-48.4-18.4-66.9 0-5.7 5.7-13.3 8.8-21.4 8.8-8.1 0-15.7-3.1-21.4-8.9-11.8-11.8-11.8-31 0-42.8 42-42 110.4-42 152.5 0 20.4 20.4 31.6 47.4 31.6 76.2s-11.2 55.9-31.6 76.2l-48 48H97.5c-5.7 0-11.2.6-16.6 1.6l92.4-92.3zM42.6 381.9c-11.3-13.1-17.6-30-17.6-47.3 0-40 32.5-72.5 72.5-72.5h317c40 0 72.5 32.5 72.5 72.5 0 17.2-6.1 33.9-17.3 47-.1.1-.2.2-.3.4-3.9 2.3-7.4 4.8-10.7 7.2-10.1 7.3-18.7 13.6-37 13.6s-27-6.3-37-13.6c-10.6-7.7-22.7-16.4-45.8-16.4-23.1 0-35.2 8.7-45.8 16.4-10.1 7.3-18.7 13.6-37 13.6s-27-6.3-37-13.6c-10.6-7.7-22.7-16.4-45.8-16.4-23.1 0-35.2 8.7-45.8 16.4-10.1 7.3-18.7 13.6-37 13.6s-27-6.3-37-13.6c-3.5-2.4-7-4.9-10.9-7.3zM497 497H15V388.1c13.4 1.5 20.9 7 29.5 13.2 10.6 7.7 22.7 16.4 45.8 16.4s35.2-8.7 45.8-16.4c10.1-7.3 18.7-13.6 37-13.6s27 6.3 37 13.6c10.6 7.7 22.7 16.4 45.8 16.4 23.1 0 35.2-8.7 45.8-16.4 10.1-7.3 18.7-13.6 37-13.6s27 6.3 37 13.6c10.6 7.7 22.7 16.4 45.8 16.4s35.2-8.7 45.8-16.4c8.6-6.2 16.1-11.7 29.5-13.2V497z" fill="currentColor" />
</svg>