<svg viewBox="0 0 3289 2315">
  <path d="M3321.61 2287.09c11.99 2.5 19.74 14.24 17.24 26.24-2.5 11.99-14.24 19.74-26.24 17.24-11.99-2.5-19.74-14.24-17.24-26.24 2.5-11.99 14.25-19.74 26.24-17.24Zm252.87 157.17s-19.99-70.21-172.16-113.19c0 0 5.75-117.69-151.18-90.71-140.68 11.75-292.85-54.22-386.8 57.73l16.49 3.49s-93.46 76.97-95.71 160.67l18.5-16.74s-49.23 157.17 77.96 199.91c0 0 120.19 24.73 154.17-46.23l10 19.49s49.22-49.48 12.49-133.69c0 0 57.22 73.47-1.75 144.43l-16.49 11-5.25-15s-22.74 34.24-66.47 37.74c0 0 72.72 21.74 122.44-15.5l-1.75 23.49s68.47-36.73 91.46-127.93l18.74 29.73s20.24-135.43 71.22-150.93c0 0 77.71 16 109.69-18.49 0 0 90.46 1.5 194.4 40.73Z" fill="currentColor" transform="translate(-11604.7 -9298.29) scale(4.16667)"/>
  <path d="m2929.8 2636.92 12.75 111.94s102.7 4.25 109.94 38.23h-136.43l-30.73-149.92c1.99 1.25 3.99 2.25 5.99 3.5 0 0 16.74 0 38.48-3.75ZM3076.48 2618.18l14.74 130.68s102.7 4.25 110.2 38.23h-136.68l-30.99-151.17c13.99-3.5 28.99-9 42.73-17.74Z" fill="currentColor" transform="translate(-11604.7 -9298.29) scale(4.16667)"/>
</svg>