<svg viewBox="0 0 15 17">
	<path d="M5 18.5C5 19.871 6.129 21 7.5 21h10c1.371 0 2.5-1.129 2.5-2.5v-12C20 5.129 18.871 4 17.5 4h-10A2.513 2.513 0 0 0 5 6.5v12Zm14-12v12c0 .823-.677 1.5-1.5 1.5H9V5h8.5c.823 0 1.5.677 1.5 1.5Zm-13 0C6 5.677 6.677 5 7.5 5H8v15h-.5c-.823 0-1.5-.677-1.5-1.5v-12Zm5 1c0-.274.226-.5.5-.5h5c.274 0 .5.226.5.5s-.226.5-.5.5h-5a.503.503 0 0 1-.5-.5Zm0 2c0-.274.226-.5.5-.5h5c.274 0 .5.226.5.5s-.226.5-.5.5h-5a.503.503 0 0 1-.5-.5Zm6 8c0 .274-.226.5-.5.5h-5a.503.503 0 0 1-.5-.5c0-.274.226-.5.5-.5h5c.274 0 .5.226.5.5Z" style="fill-rule:nonzero" transform="translate(-5 -4)" fill="currentColor" />
</svg>