<svg xmlns="http://www.w3.org/2000/svg" viewBox="0 0 500 500"><g id="freepik--Floor--inject-2"><ellipse id="freepik--floor--inject-2" cx="249.48" cy="346.08" rx="232.9" ry="138.18" style="fill:#f5f5f5"></ellipse></g><g id="freepik--Shadows--inject-2"><path id="freepik--Shadow--inject-2" d="M59.08,380c11.08,10.2,26.93,20.66,42.57,28.56a6.66,6.66,0,0,0,4.4.33c21.89-7.21,39.6-17.83,54-31.1a1.91,1.91,0,0,0-.17-3.05c-15.32-11.19-33.19-18.85-53.8-22.73a11.61,11.61,0,0,0-4.62.25q-27.73,8.46-42.57,24.34A2.42,2.42,0,0,0,59.08,380Z" style="fill:#e0e0e0"></path><path id="freepik--shadow--inject-2" d="M316.64,455.92C347,438.4,347,410,316.64,392.48s-79.53-17.51-109.87,0-30.34,45.92,0,63.44S286.3,473.43,316.64,455.92Z" style="fill:#e0e0e0"></path><path id="freepik--shadow--inject-2" d="M434.52,337.91c9.06,5.24,9.06,13.72,0,18.95s-23.76,5.24-32.83,0-9.06-13.71,0-18.95S425.45,332.68,434.52,337.91Z" style="fill:#e0e0e0"></path></g><g id="freepik--Painting--inject-2"><g id="freepik--painting--inject-2"><polygon points="155.75 138.14 155.75 44.26 153.04 42.7 33.82 111.53 33.82 205.42 36.52 206.97 155.75 138.14" style="fill:#e0e0e0"></polygon><polygon points="36.52 206.97 155.75 138.14 155.75 44.26 36.52 113.09 36.52 206.97" style="fill:#fafafa"></polygon><polygon points="43.53 194.83 148.6 134.02 148.6 111.06 126.04 96.54 111.73 118.82 117.14 125.66 78.46 105.44 43.53 165.53 43.53 194.83" style="fill:#364C93"></polygon><path d="M108.06,84.32c3.59-2.07,6.49-.39,6.49,3.74a14.33,14.33,0,0,1-6.49,11.24c-3.58,2.07-6.48.39-6.48-3.75A14.34,14.34,0,0,1,108.06,84.32Z" style="fill:#364C93"></path><g style="opacity:0.8"><polygon points="43.53 194.83 148.6 134.02 148.6 111.06 126.04 96.54 111.73 118.82 117.14 125.66 78.46 105.44 43.53 165.53 43.53 194.83" style="fill:#fff"></polygon><path d="M108.06,84.32c3.59-2.07,6.49-.39,6.49,3.74a14.33,14.33,0,0,1-6.49,11.24c-3.58,2.07-6.48.39-6.48-3.75A14.34,14.34,0,0,1,108.06,84.32Z" style="fill:#fff"></path></g></g></g><g id="freepik--Window--inject-2"><g id="freepik--window--inject-2"><polygon points="462.49 202.42 457.33 205.4 355.02 146.06 360.18 143.07 462.49 202.42" style="fill:#fafafa"></polygon><polygon points="360.18 143.07 457.33 199.44 457.32 105.69 360.18 49.33 360.18 143.07" style="fill:#364C93"></polygon><g style="opacity:0.8"><polygon points="360.18 143.07 457.33 199.44 457.32 105.69 360.18 49.33 360.18 143.07" style="fill:#fff"></polygon></g><polygon points="407.46 73.89 407.46 173.6 402.3 170.62 402.3 70.91 407.46 73.89" style="fill:#f0f0f0"></polygon><polygon points="410.04 72.4 407.46 73.89 407.46 173.6 410.04 172.1 410.04 72.4" style="fill:#e0e0e0"></polygon><path d="M349.85,149l112.64,65.3V102.72L349.85,37.41ZM355,46.35,457.33,105.7v99.7L355,146.06Z" style="fill:#f0f0f0"></path><polygon points="355.02 146.06 360.18 143.07 360.18 49.33 355.02 46.35 355.02 146.06" style="fill:#e0e0e0"></polygon><polygon points="349.85 37.41 355.01 34.43 467.65 99.73 462.49 102.72 349.85 37.41" style="fill:#fafafa"></polygon><polygon points="467.65 99.73 462.49 102.72 462.49 214.34 467.65 211.36 467.65 99.73" style="fill:#e0e0e0"></polygon><polygon points="407.46 76.87 402.31 73.89 402.31 76.87 407.46 79.85 407.46 76.87" style="fill:#e0e0e0"></polygon><polygon points="407.46 79.85 410.04 78.36 407.46 76.87 407.46 79.85" style="opacity:0.15"></polygon></g></g><g id="freepik--plant-2--inject-2"><g id="freepik--Pot--inject-2"><g id="freepik--pot--inject-2"><path d="M400.62,318.43c-6.26-9.69-4.21-43.48,4.81-48.3l39.25,8c6.4,8-4.93,39.85-14.48,46.32l-.26.18-.33.21c-.27.17-.55.33-.84.49l-.22.11-.69.33a11,11,0,0,1-1.16.44c-7.27,2.43-17.82.28-23.56-4.8h0a12.13,12.13,0,0,1-.89-.87c-.17-.18-.32-.36-.47-.53l-.2-.24c-.2-.25-.39-.5-.56-.75s-.17-.25-.25-.37Z" style="fill:#364C93"></path><path d="M400.62,318.43c-6.26-9.69-4.21-43.48,4.81-48.3l39.25,8c6.4,8-4.93,39.85-14.48,46.32l-.26.18-.33.21c-.27.17-.55.33-.84.49l-.22.11-.69.33a11,11,0,0,1-1.16.44c-7.27,2.43-17.82.28-23.56-4.8h0a12.13,12.13,0,0,1-.89-.87c-.17-.18-.32-.36-.47-.53l-.2-.24c-.2-.25-.39-.5-.56-.75s-.17-.25-.25-.37Z" style="fill:#fff;opacity:0.5"></path><path d="M441.79,274.86c7.91,7,6.2,15.37-3.81,18.72s-24.53.38-32.43-6.61-6.2-15.38,3.81-18.73S433.89,267.86,441.79,274.86Z" style="fill:#364C93"></path><path d="M441.79,274.86c7.91,7,6.2,15.37-3.81,18.72s-24.53.38-32.43-6.61-6.2-15.38,3.81-18.73S433.89,267.86,441.79,274.86Z" style="fill:#fff;opacity:0.7000000000000001"></path><path d="M437,276.46c5.8,5.14,4.55,11.3-2.8,13.75s-18,.29-23.82-4.85-4.55-11.3,2.8-13.75S431.18,271.33,437,276.46Z" style="fill:#364C93"></path><path d="M411.83,278.13c7.35-2.45,18-.28,23.82,4.86a11.15,11.15,0,0,1,3.2,4.41,11,11,0,0,1-4.67,2.81c-7.35,2.46-18,.29-23.82-4.85a11.11,11.11,0,0,1-3.2-4.42A11.23,11.23,0,0,1,411.83,278.13Z" style="fill:#455a64"></path></g><g id="freepik--Plants--inject-2"><path d="M422.66,283.25a27,27,0,0,0,13.89,1.24c8.08-1.3,10.26-6.08,10.26-6.08s-5.37-6.21-10.4-6.8a45,45,0,0,1,15.12,1.1s4.71-1.46,4.23-9.22c0,0-4.18-3.4-14.26-2.68,0,0,5.2-3.28,14.05-3.87.7,0,.28-10.06-.32-14.59s-2.31-3.92-5.93-3.72-15.13,3.35-16.61,5.86-.5,9.11-.5,9.11-3.15-2.88-3.71-6.2a12.53,12.53,0,0,0-7,2.48c-3.31,2.53-2.48,4.27-1.59,7a30.05,30.05,0,0,0,3.77,7.73s-3.31-1.38-6.09-9.59c0,0-3.64,6-4.46,10.36S416,279.3,422.66,283.25Z" style="fill:#364C93"></path><path d="M422.66,283.25a27,27,0,0,0,13.89,1.24c8.08-1.3,10.26-6.08,10.26-6.08s-5.37-6.21-10.4-6.8a45,45,0,0,1,15.12,1.1s4.71-1.46,4.23-9.22c0,0-4.18-3.4-14.26-2.68,0,0,5.2-3.28,14.05-3.87.7,0,.28-10.06-.32-14.59s-2.31-3.92-5.93-3.72-15.13,3.35-16.61,5.86-.5,9.11-.5,9.11-3.15-2.88-3.71-6.2a12.53,12.53,0,0,0-7,2.48c-3.31,2.53-2.48,4.27-1.59,7a30.05,30.05,0,0,0,3.77,7.73s-3.31-1.38-6.09-9.59c0,0-3.64,6-4.46,10.36S416,279.3,422.66,283.25Z" style="opacity:0.2"></path><path d="M422.8,283.68a.44.44,0,0,0,.31-.37c2-14.9,20.13-37.38,27.85-41.69a.45.45,0,0,0,.18-.61.46.46,0,0,0-.62-.18c-7.85,4.37-26.29,27.23-28.31,42.36a.45.45,0,0,0,.39.51A.44.44,0,0,0,422.8,283.68Z" style="fill:#fff"></path><path d="M423.36,286.66a13.23,13.23,0,0,1-19.57-7.3,2.75,2.75,0,0,1-.1-1.83,2.79,2.79,0,0,1,1.36-1.24,18.37,18.37,0,0,1,9.18-2.2c-1.7,0-3.63-1-5.3-1.34a32.88,32.88,0,0,0-7.33-.76s-3.66-2.27-1.56-8.73c0,0,4.28-2,12.64.86a28.26,28.26,0,0,0-11-6.35c-.59-.11,2-8.56,3.47-12.26s2.81-2.81,5.82-1.85,12.06,6.14,12.77,8.59-1.57,7.81-1.57,7.81,3.29-1.75,4.49-4.43a10.89,10.89,0,0,1,5.39,3.63c2.25,2.86,1.16,4.15-.18,6.26a26.7,26.7,0,0,1-4.88,5.71,8.61,8.61,0,0,1,1.56-.72c.87-.43,1.78-.72,2.63-1.23a14.39,14.39,0,0,0,4.2-3.76,25.67,25.67,0,0,1,1.71,9.27,13.29,13.29,0,0,1-3.29,8.67c-2.42,2.59-6.62,4.16-10.08,3Z" style="fill:#364C93"></path><path d="M423.49,287.54a.37.37,0,0,1-.18-.38c1.57-13-8.84-36-14.44-41.33a.4.4,0,0,1,.55-.58c5.68,5.42,16.28,28.77,14.67,42a.38.38,0,0,1-.44.34A.25.25,0,0,1,423.49,287.54Z" style="fill:#fff"></path></g></g></g><g id="freepik--Chair--inject-2"><g id="freepik--chair--inject-2"><polygon points="84.99 273.89 81.49 274.6 71.8 236.03 75.3 235.32 84.99 273.89" style="fill:#455a64"></polygon><polygon points="57.8 295.59 54.3 296.3 44.61 257.74 48.11 257.02 57.8 295.59" style="fill:#455a64"></polygon><path d="M59.56,298.74l-5.82,1,2,61.91h0a.7.7,0,0,0,.53.57,2.32,2.32,0,0,0,2.07-.36.77.77,0,0,0,.33-.57h0Z" style="fill:#455a64"></path><path d="M91,272.52l-5.82,1,2,61.92h0a.71.71,0,0,0,.53.56,2.31,2.31,0,0,0,2.08-.35.79.79,0,0,0,.32-.58h0Z" style="fill:#455a64"></path><path d="M149.75,344.27l-20.34-57.63-5.82,1,23.26,57.26h0a.81.81,0,0,0,.5.43,2.35,2.35,0,0,0,2.08-.36.71.71,0,0,0,.31-.71Z" style="fill:#455a64"></path><path d="M110.14,375.1,96.76,313.68l-5.82,1,16.3,61.06h0a.81.81,0,0,0,.5.43,2.35,2.35,0,0,0,2.08-.36.7.7,0,0,0,.31-.71Z" style="fill:#455a64"></path><path d="M129.41,286.64l-5.82,1,4.25,10.46q1.69-2,3.29-4a4.13,4.13,0,0,0,.53-1.05Z" style="fill:#37474f"></path><path d="M53.74,299.75l.24,7.39a4.63,4.63,0,0,0,1.47,1.77c1.25.81,2.57,1.61,3.94,2.4l.17-12.57Z" style="fill:#37474f"></path><path d="M98.62,322.23l-1.86-8.55-5.82,1L93.7,325C95.33,324.14,97.07,323.15,98.62,322.23Z" style="fill:#37474f"></path><path d="M86,275a4.58,4.58,0,0,0-.8.05l1.57,48.4c1.16.4,2.33.77,3.49,1.13l.68-49.4C89.33,275.08,87.68,275,86,275Z" style="fill:#37474f"></path><path d="M93.75,319.94c15.52-8.31,27.45-18.61,36.58-30.47a4.77,4.77,0,0,0,.79-3.24l-.55-3.14a4,4,0,0,0-1.93-2.61,99.83,99.83,0,0,0-43.42-10.09,8.69,8.69,0,0,0-3.44.79q-19.76,10-28.84,23.87a5.36,5.36,0,0,0-.66,3.33l.55,3.14a4.73,4.73,0,0,0,1.82,2.79c9.67,6.23,22.95,12.05,35.75,16A5.09,5.09,0,0,0,93.75,319.94Z" style="fill:#364C93"></path><path d="M130.57,283.09l.55,3.14a4.77,4.77,0,0,1-.79,3.24,111.79,111.79,0,0,1-36.58,30.47,4.73,4.73,0,0,1-1.82.46l-8.62-49.75a7.7,7.7,0,0,1,1.91-.26,99.88,99.88,0,0,1,43.43,10.09A4,4,0,0,1,130.57,283.09Z" style="opacity:0.4"></path><path d="M83.31,270.65l8.62,49.75a4.24,4.24,0,0,1-1.54-.14c-12.78-3.9-26.07-9.72-35.74-15.95a4.8,4.8,0,0,1-1.83-2.79l-.54-3.14a5.36,5.36,0,0,1,.66-3.33Q62,281.16,81.77,271.18A7.69,7.69,0,0,1,83.31,270.65Z" style="opacity:0.5"></path><path d="M53.49,297.57c9.66,6.23,22.94,12,35.73,15.93a5.06,5.06,0,0,0,3.36-.32,111.5,111.5,0,0,0,36.59-30.44,1.46,1.46,0,0,0-.53-2.27,100,100,0,0,0-43.42-10.08,8.69,8.69,0,0,0-3.44.79Q62,281.15,52.94,295A1.84,1.84,0,0,0,53.49,297.57Z" style="fill:#364C93"></path><path d="M53.49,297.57c9.66,6.23,22.94,12,35.73,15.93a5.06,5.06,0,0,0,3.36-.32,111.5,111.5,0,0,0,36.59-30.44,1.46,1.46,0,0,0-.53-2.27,100,100,0,0,0-43.42-10.08,8.69,8.69,0,0,0-3.44.79Q62,281.15,52.94,295A1.84,1.84,0,0,0,53.49,297.57Z" style="opacity:0.30000000000000004"></path><path d="M36.6,252.47a65.6,65.6,0,0,1,39.34-32.8,6,6,0,0,1,3.34.05,3.39,3.39,0,0,1,1.91,2.38l2.29,13.22a2.14,2.14,0,0,1-1.43,2.33,65.56,65.56,0,0,0-39.33,32.8,2.08,2.08,0,0,1-2.44,1,3.37,3.37,0,0,1-1.91-2.38l-2.29-13.22A6.24,6.24,0,0,1,36.6,252.47Z" style="fill:#364C93"></path><path d="M50,259.31,36.09,254.2a5.57,5.57,0,0,0,0,1.68l2.29,13.22a3.37,3.37,0,0,0,1.91,2.38,2.08,2.08,0,0,0,2.44-1A72.48,72.48,0,0,1,50,259.31Z" style="opacity:0.5"></path><path d="M50,259.31a65.45,65.45,0,0,1,32.05-21.66,2.14,2.14,0,0,0,1.43-2.33L81.19,222.1a3.39,3.39,0,0,0-1.91-2.38,6,6,0,0,0-3.34-.05,65.6,65.6,0,0,0-39.34,32.8,5.59,5.59,0,0,0-.51,1.73Z" style="opacity:0.30000000000000004"></path><path d="M42.72,270.45a65.59,65.59,0,0,1,39.33-32.8,2.14,2.14,0,0,0,1.43-2.33L81.19,222.1a1.56,1.56,0,0,0-2-1.26A65.62,65.62,0,0,0,39.8,253.65a6.2,6.2,0,0,0-.52,3.4l2.29,13.22C41.74,271.26,42.24,271.34,42.72,270.45Z" style="fill:#364C93"></path><path d="M42.72,270.45a65.59,65.59,0,0,1,39.33-32.8,2.14,2.14,0,0,0,1.43-2.33L81.19,222.1a1.56,1.56,0,0,0-2-1.26A65.62,65.62,0,0,0,39.8,253.65a6.2,6.2,0,0,0-.52,3.4l2.29,13.22C41.74,271.26,42.24,271.34,42.72,270.45Z" style="opacity:0.4"></path></g></g><g id="freepik--Table--inject-2"><g id="freepik--table--inject-2"><g id="freepik--table--inject-2"><g id="freepik--table--inject-2"><path d="M237.85,375.14c11.35-5.57,29.06-4.37,39.57,2.67,5.25,3.53,7.69,7.84,7.41,12,0,.43-.2,3.06-.24,3.55-.36,4.06-3.36,7.93-8.94,10.67-11.36,5.57-29.07,4.38-39.57-2.67-5.19-3.48-7.64-7.74-7.43-11.83,0-.48.21-3.11.24-3.56C229.2,381.84,232.2,377.91,237.85,375.14Z" style="fill:#37474f"></path><path d="M275.87,400.66c11.36-5.57,12.05-15.8,1.55-22.85s-28.22-8.24-39.57-2.67-12,15.8-1.55,22.85S264.52,406.23,275.87,400.66Z" style="fill:#455a64"></path><path d="M253.58,385h0l4.62-68.48,7,.47-4.62,68.48h0a1.61,1.61,0,0,1-1.1,1.52,5.44,5.44,0,0,1-4.93-.33A1.61,1.61,0,0,1,253.58,385Z" style="fill:#37474f"></path><path d="M208.57,249.59c33-16.18,84.39-12.71,114.88,7.75,15.24,10.23,22.35,22.77,21.54,34.77-.17,2.46,0-.13-.16,2.33-.81,12-9.53,23.47-26,31.56-33,16.17-84.4,12.7-114.89-7.75-15.24-10.23-22.35-22.77-21.53-34.77.16-2.47,0,.13.15-2.33C183.36,269.14,192.09,257.68,208.57,249.59Z" style="fill:#455a64"></path><path d="M208.91,243.5c33-16.18,84.39-12.71,114.88,7.75C339,261.48,346.14,274,345.33,286c-.17,2.46-.11,1.53-.27,4-.81,12-9.54,23.47-26,31.56-33,16.17-84.39,12.7-114.88-7.76-15.24-10.23-22.24-24.43-21.42-36.43.16-2.47,0,.13.15-2.33C183.7,263.05,192.43,251.58,208.91,243.5Z" style="fill:#364C93"></path><path d="M208.91,243.5c33-16.18,84.39-12.71,114.88,7.75C339,261.48,346.14,274,345.33,286c-.17,2.46-.11,1.53-.27,4-.81,12-9.54,23.47-26,31.56-33,16.17-84.39,12.7-114.88-7.76-15.24-10.23-22.24-24.43-21.42-36.43.16-2.47,0,.13.15-2.33C183.7,263.05,192.43,251.58,208.91,243.5Z" style="opacity:0.2"></path><path d="M319.31,317.58c33-16.18,35-45.88,4.48-66.33s-81.92-23.93-114.88-7.75-35,45.87-4.48,66.32S286.35,333.75,319.31,317.58Z" style="fill:#364C93"></path></g></g></g></g><g id="freepik--plant-1--inject-2"><g id="freepik--pot--inject-2"><path id="freepik--shadow--inject-2" d="M322,287.71c5.12,3,5.12,7.75,0,10.71s-13.43,3-18.55,0-5.13-7.76,0-10.71S316.84,284.75,322,287.71Z" style="opacity:0.15"></path><g id="freepik--pot--inject-2"><path d="M307.28,275.53c-3.36-5.52-3.33-17.35,1.79-19.91l21.87,5.08c3.47,4.57-1.72,15.19-7.17,18.66l-.15.1-.19.11a5.42,5.42,0,0,1-.48.26l-.13.06-.39.18a5.61,5.61,0,0,1-.65.23,14.89,14.89,0,0,1-13.13-3.06h0a5.81,5.81,0,0,1-.49-.5l-.25-.3-.11-.13c-.11-.15-.21-.29-.3-.44s-.09-.14-.14-.21Z" style="fill:#37474f"></path><path d="M329.38,258.82c4.32,4.05,3.23,8.72-2.43,10.44s-13.75-.16-18.07-4.21-3.23-8.71,2.43-10.43S325.06,254.78,329.38,258.82Z" style="fill:#455a64"></path><path d="M325.37,260c2.62,2.46,2,5.31-1.48,6.35a12.48,12.48,0,0,1-11-2.55c-2.63-2.46-2-5.31,1.47-6.35A12.5,12.5,0,0,1,325.37,260Z" style="fill:#263238"></path><path d="M313.67,260.5a12.48,12.48,0,0,1,11,2.56,5.19,5.19,0,0,1,1.43,2.09,5.19,5.19,0,0,1-2.21,1.24,12.48,12.48,0,0,1-11-2.55,5.32,5.32,0,0,1-1.44-2.1A5.19,5.19,0,0,1,313.67,260.5Z" style="fill:#e0e0e0"></path><path d="M324.16,264.59a28,28,0,0,0,5.71-4.78c2.84-3.09,4.32-7.77,3.42-8.6s-6.25,2.94-6.25,2.94a26.44,26.44,0,0,0,1.86-6c.56-3.21.46-6.27-.31-7.06s-3.74,2.73-5.29,5.43-2.62,5-2.62,5a45.67,45.67,0,0,0,0-7c-.35-3.25-1.15-4.16-2-4s-1.63,1.41-2.78,5.37a41.15,41.15,0,0,0-1.15,5.78s-1.11-2-2.4-4c-1.42-2.17-2.14-2.6-2.74-2.38s-1.37,2.9.26,8.66a29,29,0,0,0,3.7,8.24S316.91,265.56,324.16,264.59Z" style="fill:#364C93"></path><path d="M324.16,264.59a28,28,0,0,0,5.71-4.78c2.84-3.09,4.32-7.77,3.42-8.6s-6.25,2.94-6.25,2.94a26.44,26.44,0,0,0,1.86-6c.56-3.21.46-6.27-.31-7.06s-3.74,2.73-5.29,5.43-2.62,5-2.62,5a45.67,45.67,0,0,0,0-7c-.35-3.25-1.15-4.16-2-4s-1.63,1.41-2.78,5.37a41.15,41.15,0,0,0-1.15,5.78s-1.11-2-2.4-4c-1.42-2.17-2.14-2.6-2.74-2.38s-1.37,2.9.26,8.66a29,29,0,0,0,3.7,8.24S316.91,265.56,324.16,264.59Z" style="opacity:0.25"></path><path d="M323.24,256.88s4.58-6.83,6-12.23a22.89,22.89,0,0,1-.35,3.52,26.44,26.44,0,0,1-1.86,6S324.86,256.41,323.24,256.88Z" style="opacity:0.1"></path><path d="M316.88,264a15.11,15.11,0,0,0,6.55-1.07c3.29-1.43,8.92-7.09,10-9.63a15.7,15.7,0,0,1-3.52,6.5,28,28,0,0,1-5.71,4.78A15.78,15.78,0,0,1,316.88,264Z" style="opacity:0.1"></path></g></g></g><g id="freepik--Device--inject-2"><g id="freepik--Laptop--inject-2"><g id="freepik--laptop--inject-2"><path d="M277.69,217.15l-.1.73a3.06,3.06,0,0,1-1.86,2.4l-56.8,23.15a3,3,0,0,1-1.56.19,3,3,0,0,1-1.46-.61L189.5,222.56a3,3,0,0,1-1.14-2.81l.14-1h0a.39.39,0,0,0,.15.36l29,22.52Z" style="fill:#37474f"></path><path d="M217.64,241.62l-.27,2a3.09,3.09,0,0,0,1.56-.19l56.8-23.15a3,3,0,0,0,1.86-2.4l.1-.73Z" style="fill:#263238"></path><path d="M277.69,217.15,249,194.85a1.81,1.81,0,0,0-1.79-.25l-58.43,23.82a.4.4,0,0,0-.09.69l29,22.51Z" style="fill:#455a64"></path><polygon points="217.72 238.94 202.23 226.91 255.34 205.27 270.93 217.25 217.72 238.94" style="fill:#37474f"></polygon><polygon points="270.93 217.25 270.24 217.53 255.24 206.01 202.82 227.38 202.23 226.92 255.34 205.27 270.93 217.25" style="fill:#263238"></polygon><polygon points="213.16 210.8 213.45 211.02 221.04 216.91 236.87 210.46 237.2 210.33 229.32 204.21 213.16 210.8" style="fill:#263238"></polygon><polygon points="213.45 211.02 221.04 216.91 236.87 210.46 229.27 204.56 213.45 211.02" style="fill:#37474f"></polygon><path d="M218.43,242.18a3.59,3.59,0,0,0,3.1.19l56.56-23.05a3.61,3.61,0,0,0,2.07-2.25l10.44-33.42a3.75,3.75,0,0,0,.13-.58,3.62,3.62,0,0,0-.71-2.68l-58.77,24a2.67,2.67,0,0,0-1.53,1.67Z" style="fill:#37474f"></path><path d="M217.64,241.62l.33.26a4.53,4.53,0,0,0,.46.3L229.72,206a2.67,2.67,0,0,1,1.53-1.67l58.77-24a3.33,3.33,0,0,0-.65-.65l-58.89,24a2.67,2.67,0,0,0-1.53,1.67Z" style="fill:#455a64"></path><path d="M230.38,204.94l-.78-.6a2.73,2.73,0,0,0-.65,1.07l-11.31,36.21.33.26a4.53,4.53,0,0,0,.46.3L229.72,206A2.61,2.61,0,0,1,230.38,204.94Z" style="fill:#263238"></path><path d="M252.28,214.66c.7-2.24,3.48-4.95,6.21-6.07s4.39-.2,3.69,2-3.48,5-6.22,6.07S251.58,216.9,252.28,214.66Z" style="fill:#364C93"></path></g><path id="freepik--shadow--inject-2" d="M284.85,259.81l-32.87-19a1.93,1.93,0,0,0-1.89,0l-57,32.93a.42.42,0,0,0,0,.73l33.18,19.16Z" style="opacity:0.1"></path></g></g><g id="freepik--character-2--inject-2"><g id="freepik--Character--inject-2"><path d="M280.26,125.27c-4.53,5.28-11,14.42-14.78,18.46L241.9,128.25l-4.79,6.45s14.32,14.38,17.48,16.87c3.8,3,6.58,5.66,10.3,7.72,2.76,1.52,5.95-.7,9.29-3.56,4.8-4.13,17.61-17.3,17.61-17.3L298.74,116C291.35,115.28,284.83,119.92,280.26,125.27Z" style="fill:#f28f8f"></path><path d="M239.75,123.81c-.1-1.28-.21-2.56-.31-3.84-.05-.6-.1-1.21-.21-1.81a18.76,18.76,0,0,0-.48-1.93c-1.13-4-1.64-7.64-2.78-11.61a1.52,1.52,0,0,0-.27-.61.58.58,0,0,0-.59-.22.91.91,0,0,0-.34.28,5.69,5.69,0,0,0-1.07,3,17,17,0,0,0,.07,3.19l.18,2.17a15.38,15.38,0,0,1,0,4c-.08.44-.19.88-.23,1.33a4.73,4.73,0,0,0,0,.65c-.44-.82-.87-1.65-1.3-2.47-.21-.4-.58-.87-1-.74a.9.9,0,0,0-.49.7,8.35,8.35,0,0,0,.48,4.54,22.72,22.72,0,0,1,.82,2.93c.15.83.09,1.67.19,2.5a15.33,15.33,0,0,0,1.32,4.84c.64,2.23,2.83,3.33,5.14,5.59l3-8A5.38,5.38,0,0,1,239.75,123.81Z" style="fill:#f28f8f"></path><path d="M299.37,116c-5.3-1.62-13,1.48-19.09,9S271,136.56,271,136.56a22.21,22.21,0,0,0,11.26,11.7l12.18-10.86Z" style="fill:#364C93"></path><path d="M397.2,88c2.35-5.41,6.58-9.78,11.1-13.58s9.42-7.1,13.86-11a2.53,2.53,0,0,0,1-1.37c.22-1.45-1.55-2.18-2.7-2a12.22,12.22,0,0,1-2.29.4,10.38,10.38,0,0,1-2.16-.55,14.54,14.54,0,0,0-4.32-.07c-1.52.08-2.93-.31-4.43.09-3.75,1-6,5.13-9.65,6.33-2.72.89-5.92.07-8.36,1.56s-3.13,4.63-3.17,7.45c0,2.18.3,3.74-.09,5.89s-2.25,7.65-6.3,15.84c.59.59,13.8,6.3,14,5C394.32,98.74,396,90.81,397.2,88Z" style="fill:#f28f8f"></path><path d="M445.09,123.78c4.57-3.72,11.44-5.94,17.19-7.24s11.64-2,17.36-3.39a2.53,2.53,0,0,0,1.49-.77c.86-1.18-.37-2.65-1.48-3a12.48,12.48,0,0,1-2.22-.7,11.06,11.06,0,0,1-1.67-1.47,14.24,14.24,0,0,0-3.8-2c-1.39-.63-2.46-1.62-4-2-3.79-.84-7.65,1.82-11.48,1.2-2.82-.46-5.29-2.67-8.14-2.46s-4.91,2.68-6.24,5.17c-1,1.91-1.45,3.45-2.78,5.19s-5.52,5.76-12.87,11.18c.25.79,8.86,10.27,8.86,10.27A90.27,90.27,0,0,1,445.09,123.78Z" style="fill:#f28f8f"></path><path d="M377.91,140.89c6.38-3,8.21-5.3,9.07-8.36,1.83-6.54,5.44-22.59,9-40.06-1.69,1.94-12.77-.31-13.2-2.58-8.27,18.13-12.16,23.23-12.92,33.86-7.41,1.76-21,5.37-25.43,6.4-11.86,2.77-20.44,12.32-24.22,18.94l12.2,12.32C344.46,154.59,371.52,143.89,377.91,140.89Z" style="fill:#364C93"></path><path d="M377.91,140.89c6.38-3,8.21-5.3,9.07-8.36,1.83-6.54,5.44-22.59,9-40.06-1.69,1.94-12.77-.31-13.2-2.58-8.27,18.13-12.16,23.23-12.92,33.86-7.41,1.76-21,5.37-25.43,6.4-11.86,2.77-20.44,12.32-24.22,18.94l12.2,12.32C344.46,154.59,371.52,143.89,377.91,140.89Z" style="opacity:0.4"></path><path d="M377.23,129.47a11.14,11.14,0,0,0-7-9.41c-.19,1.17-.33,2.39-.42,3.69C375.45,125.67,377.23,129.47,377.23,129.47Z" style="opacity:0.15"></path><path d="M398.41,145.13s-20-2-31.19-3.41c-12.34-9-28.25-5.76-29.42-3.87l11.73,33.06c21.49-1.63,44-2.56,55-5.71,10.83-2.65,35.26-36.09,35.26-36.09.33-1.86-6.34-8.39-10.17-8.64C418.67,128.87,402.27,136.12,398.41,145.13Z" style="fill:#364C93"></path><path d="M398.41,145.13s-20-2-31.19-3.41c-12.34-9-28.25-5.76-29.42-3.87l11.73,33.06c21.49-1.63,44-2.56,55-5.71,10.83-2.65,35.26-36.09,35.26-36.09.33-1.86-6.34-8.39-10.17-8.64C418.67,128.87,402.27,136.12,398.41,145.13Z" style="opacity:0.30000000000000004"></path><path d="M400,142.41a16.11,16.11,0,0,0-1.57,2.72,12.47,12.47,0,0,1,7.3,7.17S406.28,147,400,142.41Z" style="opacity:0.15"></path><path d="M307.45,118.15c6.83,2.8,9.66,3.57,12.93,5.25,3.66,1.87,4.76,4.44,7.23,8,2.4,2.5,4.84,3.6,6.22,3.27,2.38-.21,11.54,3.53,16.07,12.39,4.82,9.43,3.86,18.94.72,24.2a98.89,98.89,0,0,1-28.84.67c-8.74-1.07-17.15-6.3-22.41-10.57a38.71,38.71,0,0,1-14.16-23.67C282.57,124.29,288.73,110.5,307.45,118.15Z" style="fill:#455a64"></path><path d="M271.72,103.07a8.17,8.17,0,0,0,2.93,2.5c1.37.5,2.12-1.14,3.29-2a4.08,4.08,0,0,0,1.58-2.45,15.84,15.84,0,0,0,0-3.08,5.17,5.17,0,0,0-.59-2,9,9,0,0,0-2.66-3.43,4.92,4.92,0,0,0-1.75-.89,1,1,0,0,0-1.18.42A5.86,5.86,0,0,0,272,95.6a10.38,10.38,0,0,0,.93,4.61l-1.69-1.65a.5.5,0,0,0-.22-.16.4.4,0,0,0-.43.18.84.84,0,0,0-.14.47A6.15,6.15,0,0,0,271.72,103.07Z" style="fill:#263238"></path><path d="M303.63,113.18l3.15,7.59c.85,2.34.21,6.74-5.46,8.89a6.42,6.42,0,0,1-6.33-.75l-3.34-4.81Z" style="fill:#f28f8f"></path><path d="M307.45,107.09a32.37,32.37,0,0,1-1.45,5.3,5.49,5.49,0,0,1-4,2.94l-.44-5.09Z" style="fill:#263238"></path><path d="M304,93.33A4.79,4.79,0,0,1,308,94.47c1.81,1.63,1.21,7.14-.57,12.62l-3.87.69Z" style="fill:#263238"></path><path d="M307.28,110.94a3.64,3.64,0,0,1-.72.39,6.34,6.34,0,0,1-2.5.5,2.54,2.54,0,0,1-2.51-1.59l.37,4.16,1,10.93a14.16,14.16,0,0,1-1.58-.15,32.64,32.64,0,0,1-4.51-1.08c-1.39-.43-2.3-.81-2.3-.81A42.67,42.67,0,0,1,289,125.1h0a27.31,27.31,0,0,1-5.73.65,7.93,7.93,0,0,1-6.83-5.69c-1.87-5.36-2.39-10-1.77-20.82.67-11.86,14.34-12.86,22-8.67s5.08,14.17,5.08,14.17a9.57,9.57,0,0,1,1.75-3.7c.9-1.08,4.53-1.77,6.31,1.44C311.5,105.42,309.47,109.49,307.28,110.94Z" style="fill:#f28f8f"></path><path d="M293.49,96.66c.11,4.27,3.35,4.78,4.51,4.74a10.53,10.53,0,0,0,.23,4.65c.39,1.34,1.5,3,2.8,2.17.42-.28.45-.7.49-1.21a18.08,18.08,0,0,1,.29-2.27c1.19-3.45,2.22-4.23,3.47-4.53-.18-1.14-.42-2.26-.61-3.32-.55-3-.62-6.4-2.38-9-1.9-2.86-5.25-4.13-8.53-4.64-2.82-.43-5.7-.36-8.54-.55a14.53,14.53,0,0,1-8.71-3.27c-.5-.45-1.11-1-1.76-.82s-.92,1-1,1.64a12.35,12.35,0,0,0,.95,7.65,4.55,4.55,0,0,1-1.21-.6l-1.72-1.37a.94.94,0,0,0-.75-.3c-.4.09-.5.6-.5,1,0,3.57,1.86,6.86,4.33,9.42C278.51,99.83,284.81,100.25,293.49,96.66Z" style="fill:#263238"></path><path d="M304,94.19l4.56-2.84a2.6,2.6,0,0,0-3.65-.95A2.82,2.82,0,0,0,304,94.19Z" style="fill:#263238"></path><path d="M301.32,116.49a18,18,0,0,1-2,5.69A13.21,13.21,0,0,1,293,126l-1.17-1.68,2.72-1a15,15,0,0,0,3.14-1.69A15.91,15.91,0,0,0,301.32,116.49Z" style="fill:#b16668"></path><path d="M287.89,107.87a1.41,1.41,0,1,0,1.31-1.55A1.43,1.43,0,0,0,287.89,107.87Z" style="fill:#263238"></path><path d="M288.58,102.93l3.34.82a1.81,1.81,0,0,0-1.3-2.13A1.67,1.67,0,0,0,288.58,102.93Z" style="fill:#263238"></path><path d="M289.54,116l-5.06,2.28a2.72,2.72,0,0,0,3.63,1.49A2.9,2.9,0,0,0,289.54,116Z" style="fill:#874c4c"></path><path d="M289.3,117.21a2.5,2.5,0,0,0-2.5,2.5,2.45,2.45,0,0,0,0,.27,2.65,2.65,0,0,0,1.29-.22,2.86,2.86,0,0,0,1.65-2.5A2.4,2.4,0,0,0,289.3,117.21Z" style="fill:#b16668"></path><path d="M275.57,103.92l3.12-1.5a1.65,1.65,0,0,0-2.26-.85A1.82,1.82,0,0,0,275.57,103.92Z" style="fill:#263238"></path><path d="M276.47,107.39a1.41,1.41,0,1,0,1.31-1.56A1.44,1.44,0,0,0,276.47,107.39Z" style="fill:#263238"></path><polygon points="283.37 106.05 282.82 115.79 277.88 114.3 283.37 106.05" style="fill:#b16668"></polygon><path d="M342.76,166.65c-.48-2.19-4.65-15.61-7.64-24.1-4.62-13.14-5.61-17.18-14.93-18.8-7,4.49-1.31,23.55-1.31,23.55l9.54,22.78c-.61,10.07-1.8,26.91-3,29.33-3.29,2.61-4.69,6.88-7.15,9s-2.24,3.49-.83,3.46c2.24,0,3.94-1.5,5.63-2.79a.64.64,0,0,1,.51-.18c.34.09.47.49.22,1.66a24.18,24.18,0,0,1-5.19,9.88,5.15,5.15,0,0,0-.85,1.29,1.6,1.6,0,0,0,.07,1.49c.55.83,1.81.65,2.73.28,5-2,9.23-7.85,11.47-12.62,2.73-5.8,8.45-26.42,10.67-38A12.39,12.39,0,0,0,342.76,166.65Z" style="fill:#f28f8f"></path><path d="M319.69,123.05c9.42,2.48,11,4.6,13.1,10.49s5.58,17.71,5.58,17.71a16.94,16.94,0,0,1-8.87,6.4c-5.68,1.53-6.59.65-6.59.65s-5.63-13.06-6.6-17.27C313.66,129.48,319.69,123.05,319.69,123.05Z" style="fill:#364C93"></path></g></g><g id="freepik--character-1--inject-2"><g id="freepik--character--inject-2"><path d="M234.46,129a23.53,23.53,0,0,0-1-5.39c-.57-1.74.48-3.29.27-5.31a10,10,0,0,0-.26-1.36,14.17,14.17,0,0,1-.34-3.61l.06-2a15.69,15.69,0,0,0-.1-3,5.4,5.4,0,0,0-1.16-2.72.71.71,0,0,0-.33-.24.54.54,0,0,0-.55.23,1.68,1.68,0,0,0-.22.59c-.85,3.78-1.14,7.25-2,11-.13.61-.27,1.22-.35,1.83s-.08,1.14-.09,1.71c0,1.21-.07,2.41-.1,3.62a4.73,4.73,0,0,1-1.94,4c-7.2,5.09-23.39,14.13-23.39,14.13-2.87-4.18-7.22-9.52-12.53-16.61-4-5.28-9.08-9.29-16.26-8.69l9.77,23s12.79,13.57,14.27,14.47c1.88,1.15,3.3,1.4,4.57,1,2.8-1,3.89-2,6.71-3.81,3.19-2,20.68-16.7,20.68-16.7h0C232.73,132.85,234.7,132.11,234.46,129Z" style="fill:#ffa8a7"></path><path d="M172.71,116.83c5.19-.18,8,.23,11.8,2.81s6.12,6,8.14,8.28a20,20,0,0,1-8.35,13.37l-1.14-1.54Z" style="fill:#263238"></path><path d="M102.15,122.18c0-3.65-2.06-7.9-5.3-14.09-3.62-6.92-6.51-11.24-9.08-18.65a24.33,24.33,0,0,1-1.64-8.51c0-1.61.46-3.22.21-4.83a5.39,5.39,0,0,0-1.79-3.3c-1.68-1.37-3.72-.5-5.61-1.24a8.39,8.39,0,0,1-3.32-3A21.83,21.83,0,0,0,73,65.31a10,10,0,0,0-3.75-1.83c-2-.61-4.09-.28-6.06-.9-.75-.24-1.45-.6-2.22-.78a2.68,2.68,0,0,0-2.25.3A2.53,2.53,0,0,0,58,64.82a6.09,6.09,0,0,0,1.08,1.88c.39.51.58,1.08.93,1.62A39.15,39.15,0,0,0,63,72c3.19,3.68,5.38,5.82,7.8,8.76a33.09,33.09,0,0,1,4.71,7.3c.62,1.64,2.21,10.59,3.38,16.15,4.73,22.3,5.85,31.62,9.76,34.25a47.65,47.65,0,0,0,5.95,3.67c6.2,3.47,25.64,12.86,39.94,17l9.58-8.06c-3-6.24-3.5-16.18-15.13-21.48a27.25,27.25,0,0,0-8.22-1.81C117.29,126.81,102.15,122.18,102.15,122.18Z" style="fill:#ffa8a7"></path><path d="M75.51,88.1a46.48,46.48,0,0,1,1.13,4.82c.28-4.63,3.4-9.31-.58-13a12.25,12.25,0,0,0-2.84-2,21.84,21.84,0,0,1-3.06-1.4c-3.55-2.69-3.14-8-6.75-10.69-.56-.41-1.54-1-2-1.42a5.43,5.43,0,0,1-1.13-2.08,3.78,3.78,0,0,0-.33-.63,2.22,2.22,0,0,0-1.17.4A2.53,2.53,0,0,0,58,64.82a6.09,6.09,0,0,0,1.08,1.88c.39.51.58,1.08.93,1.62A39.15,39.15,0,0,0,63,72c3.19,3.68,5.38,5.82,7.8,8.76A33.09,33.09,0,0,1,75.51,88.1Z" style="fill:#f28f8f"></path><path d="M124.6,151.78l2.87-15.68s-10.24-3.34-20,2.42c-6.66-.28-13.74-.12-18.69.08a48.13,48.13,0,0,0,5.81,3.57,267.18,267.18,0,0,0,29.3,13.39Z" style="fill:#f28f8f"></path><path d="M134.13,132.67a14.8,14.8,0,0,0-7.42-4.13c-3.16-.85-4.32-.77-6.69-1.46s-6.17-1.83-6.17-1.83-2.09-.33-5.64,1.4-9,6.45-10.26,13,1.51,9.89,1.51,9.89l19.89,7.8Z" style="fill:#364C93"></path><path d="M134.13,132.67a14.8,14.8,0,0,0-7.42-4.13c-3.16-.85-4.32-.77-6.69-1.46s-6.17-1.83-6.17-1.83-2.09-.33-5.64,1.4-9,6.45-10.26,13,1.51,9.89,1.51,9.89l19.89,7.8Z" style="fill:#fff;opacity:0.30000000000000004"></path><path d="M127.26,136.16c-6.28-5.42-16.54-4.28-20.81-1.46l-6.29-.64A16.19,16.19,0,0,0,98,139.67c-1.22,6.57,1.51,9.89,1.51,9.89l19.89,7.8,10.34-17.27A10.62,10.62,0,0,0,127.26,136.16Z" style="opacity:0.1"></path><path d="M125.21,136.1l-2.88,15.68-3,16.48C98.25,166,68,159.72,62.3,154.92c-2.95-2.5-2.92-9.35-1.82-34,.3-6.75,1.65-17.23,1.2-24.86a22.62,22.62,0,0,0-1.06-6.32c-1.6-5.23-5-9.54-7.81-14.17a8.78,8.78,0,0,1-1.23-2.74c-.16-.79-.1-1.62-.23-2.42a6.89,6.89,0,0,1-.26-2.15c.11-.62.51-1.16.66-1.77a17.65,17.65,0,0,0,.11-2.06,1.85,1.85,0,0,1,.63-1.26c.32-.26.76-.28,1-.71a1.16,1.16,0,0,0,.08-.32,2,2,0,0,1,2.67-1.56A2.83,2.83,0,0,1,58,62.33a5.43,5.43,0,0,0,1.13,2.08c.52.46,1.5,1,2,1.42,3.61,2.65,3.21,8,6.76,10.69a22.25,22.25,0,0,0,3,1.4,12.53,12.53,0,0,1,2.85,2c4.33,4.07.24,9.25.56,14.27.45,4.82,2.28,11.76,3.39,18.16,1.83,10.51,3.63,21.36,2.31,26.62,0,0,13.25-.89,25.16-.4C115,132.76,125.21,136.1,125.21,136.1Z" style="fill:#ffa8a7"></path><path d="M71,142.37c6.14-.88,9-3.45,9-3.45a26,26,0,0,0,.38-7C79.86,137.64,71,142.37,71,142.37Z" style="fill:#f28f8f"></path><path d="M126.71,136.61c-4.85-3.18-10-2.24-14-1.46s-6.14,2.4-7.66,2.85-3.89-.35-9.36,0c0,0-1.59-.12-4.08,2.44s-4.13,8-3.82,10.46c0,0,8.11,2.74,7.78,3.24s-8.08-.19-8.08-.19a13.26,13.26,0,0,0,.5,5.68,16.27,16.27,0,0,0,3,4.8s19.45,3.46,28.62,4.89C126.88,170.41,126.71,136.61,126.71,136.61Z" style="fill:#364C93"></path><path d="M126.71,136.61c-4.85-3.18-10-2.24-14-1.46s-6.14,2.4-7.66,2.85-3.89-.35-9.36,0c0,0-1.59-.12-4.08,2.44s-4.13,8-3.82,10.46c0,0,8.11,2.74,7.78,3.24s-8.08-.19-8.08-.19a13.26,13.26,0,0,0,.5,5.68,16.27,16.27,0,0,0,3,4.8s19.45,3.46,28.62,4.89C126.88,170.41,126.71,136.61,126.71,136.61Z" style="fill:#fff;opacity:0.5"></path><path d="M102.15,122.18a18.16,18.16,0,0,0-1.79-6.93,23.86,23.86,0,0,1-.19,4c-.58,4.57-4.81,7.39-4.81,7.39S100.34,125.45,102.15,122.18Z" style="fill:#f28f8f"></path><path d="M164.35,117.06c-1.31.19-9.93,1.93-12.12,2.58-4,1.17-8.94,15.69-11.42,19.32a34,34,0,0,0-6.68-6.43c-2.4-.21-10.54,3.47-15.11,12.39-4.85,9.48-3.88,19.06-.72,24.35,7.31,2.27,15.52,3.28,30.11,2.2,6.66-.49,16.71-4,21.3-7.38,3-2.21,4.28-3.29,6.73-5.27,10.32-2.12,10.69-11.11,8.83-18.73-2.21-9.11-2.83-14.53-6.44-20.45C177.23,117,171.41,116,164.35,117.06Z" style="fill:#455a64"></path><path d="M172,158.59c-2.85,1.74-7.11,1.81-11,.39s-6.14-5.88-6-9.37c0,0-2.19,8,4.84,11C167.29,163.85,171.8,159.55,172,158.59Z" style="fill:#37474f"></path><path d="M190.88,87c5.21-.73,7.09.66,8.59,3.69,1.66,3.36,1.21,15.33-13.09,16.54-12.13,1-16.95,3.1-21.67,5.3-9.8,4.54-26.09,2.51-33.6-3.66-9.34-7.68-8.78-17.13-4.56-21.81s12.14-.63,12.14-.63-2.71-8.61,4.9-10.07c5.9-1.13,7.55,5.87,14.46,7.67,6,1.56,8.63-2.09,14.66-4.08S188.73,80.61,190.88,87Z" style="fill:#364C93"></path><path d="M190.88,87c5.21-.73,7.09.66,8.59,3.69,1.66,3.36,1.21,15.33-13.09,16.54-12.13,1-16.95,3.1-21.67,5.3-9.8,4.54-26.09,2.51-33.6-3.66-9.34-7.68-8.78-17.13-4.56-21.81s12.14-.63,12.14-.63-2.71-8.61,4.9-10.07c5.9-1.13,7.55,5.87,14.46,7.67,6,1.56,8.63-2.09,14.66-4.08S188.73,80.61,190.88,87Z" style="opacity:0.2"></path><path d="M164.35,107.3l-1.65,11.18-5.09,1.37c.78,1.82,5.73,16,9,16.92,2.84.84,10.3.46,11.49-3.25.44-1.39-2.55-12.29-2.55-12.29l.23-.78Z" style="fill:#ffa8a7"></path><path d="M189.13,91.08h0s.36,5.17-6.19,8.34c-6.35,3.07-11,1.81-15.06,6.32-1.81,2.38-3.36-1.61-3.93-5.34A4.54,4.54,0,0,0,162.2,98,4.22,4.22,0,0,0,156,99.92c-1.42,3.08.93,7,3.23,8.29a4.25,4.25,0,0,0,3.44.61,2.34,2.34,0,0,0,1.68-1.52h0l2.12,3.88a20.81,20.81,0,0,0,2.5,5.88c1.27,1.19,4.78,3,5.48,3l1.11.34c3.35.85,8.13,1,10,.33s5.28-2.39,5.6-13.58C191.55,93.65,189.41,91.6,189.13,91.08Z" style="fill:#ffa8a7"></path><path d="M166.09,109.76s-.34,5.06,2.25,8.12a12.77,12.77,0,0,0,6.76,4.2l.68-1.6a28.71,28.71,0,0,1-2.77-1,19.29,19.29,0,0,1-3.07-1.82C167,115.5,166.5,110.73,166.09,109.76Z" style="fill:#f28f8f"></path><path d="M174.92,120.3s-1.46,8.29-2.28,9.8c-.52.93-2,.9-3,.63,0,0,2.2,1.31,3.37-.23s2.76-10,2.76-10Z" style="fill:#f28f8f"></path><path d="M179.55,104.56a1.42,1.42,0,1,1-1.44-1.46A1.44,1.44,0,0,1,179.55,104.56Z" style="fill:#263238"></path><path d="M179.13,99.61l-3.27,1.12A1.82,1.82,0,0,1,177,98.48,1.69,1.69,0,0,1,179.13,99.61Z" style="fill:#455a64"></path><path d="M178,112.4l6,2a3.11,3.11,0,0,1-4,2.07A3.3,3.3,0,0,1,178,112.4Z" style="fill:#b16668"></path><path d="M181.92,116.54a3,3,0,0,0-3.23-2.71,3.14,3.14,0,0,0-.75.17,3.23,3.23,0,0,0,2.1,2.52A3,3,0,0,0,181.92,116.54Z" style="fill:#f28f8f"></path><path d="M191.52,100.73,188.47,99a1.67,1.67,0,0,1,2.32-.72A1.83,1.83,0,0,1,191.52,100.73Z" style="fill:#455a64"></path><path d="M190.09,103.76a1.42,1.42,0,1,1-1.43-1.46A1.44,1.44,0,0,1,190.09,103.76Z" style="fill:#263238"></path><polygon points="183.16 103.57 184.16 111.55 188.66 109.99 183.16 103.57" style="fill:#f28f8f"></polygon><path d="M151.84,173.72c4.24,8.81,10.37,23.48,12.32,25.22,3.9,1.14,6.72,4.45,9.71,5.48s3.29,2.31,2,2.8c-2,.79-4.09.09-6.07-.44a.61.61,0,0,0-.53,0c-.27.2-.05.63.18.87a33.71,33.71,0,0,0,7.91,6.15,5,5,0,0,1,1.24.84,1.63,1.63,0,0,1,.48,1.37c-.2.94-1.39,1.24-2.36,1.24-5.22,0-10.49-3-14.25-6.43-4.57-4.2-20.16-24.94-23.1-29.93-.92-1.54-1.79-2.81-1.94-4.09a61.23,61.23,0,0,1-.12-7.72c0-3.41.77-20.87,1.33-28.16,1.15-14.93,4.33-19.06,13.58-21.3,5.05,4.8,1.91,24.21,1.91,24.21Z" style="fill:#ffa8a7"></path><path d="M152.23,119.64a13.84,13.84,0,0,0-11.74,8.59c-1.85,4.85-2.56,16.62-2.56,16.62a67.39,67.39,0,0,0,16.72,1.26s1.36-12,.91-18.05S153.32,120.47,152.23,119.64Z" style="fill:#263238"></path><path d="M231.08,124.16a6.68,6.68,0,0,1,.43-1.16l3.33-7.29c.19-.41.52-.9,1-.79a.93.93,0,0,1,.54.67,8.45,8.45,0,0,1-.23,4.56,23.15,23.15,0,0,0-.66,3c-.1.84,0,1.67,0,2.51-.11,1.8.18,3.19-.82,5.26a9.05,9.05,0,0,1-2.67,2.77c-.83.54-.4-5.56-.4-5.56-.32-.68-.13-1.68-.37-2.41A2.69,2.69,0,0,1,231.08,124.16Z" style="fill:#ffa8a7"></path></g></g></svg>